<mxfile host="app.diagrams.net" modified="2024-07-06T18:42:43.542Z" agent="Mozilla/5.0 (Windows NT 10.0; Win64; x64) AppleWebKit/537.36 (KHTML, like Gecko) Chrome/126.0.0.0 Safari/537.36" version="24.5.2" etag="z6OurN1KmEtlw0UWu9Ds" type="github">
  <diagram name="Страница — 1" id="Sz535E1kYm0OCft_ejMw">
    <mxGraphModel>
      <root>
        <mxCell id="0" />
        <mxCell id="1" parent="0" />
      </root>
    </mxGraphModel>
  </diagram>
</mxfile>
